<?xml version="1.0" ?><svg id="Layer_1" style="enable-background:new 0 0 55 55;" version="1.1" viewBox="0 0 55 55" xml:space="preserve" xmlns="http://www.w3.org/2000/svg" xmlns:xlink="http://www.w3.org/1999/xlink"><g id="_x37_0_1_"><path fill="white" d="M45.8401489,9.0543213h-0.6362305v-1.793457c0-0.5522461-0.4477539-1-1-1s-1,0.4477539-1,1v1.793457H42.567688   c-0.5522461,0-1,0.4477539-1,1s0.4477539,1,1,1h0.8280029c0.1422729,0.9608154,0.1829834,2.7753944-1.0545654,4.4399414   c-2.0112305,2.706543-6.7041016,4.0463867-13.5600586,3.8676758c-0.234375-0.0097656-0.46875-0.0102539-0.6933594-0.0102539   c-0.0923462,0-0.175415,0.0291138-0.2603149,0.0525513c-0.3939819-0.6981812-1.2053223-1.2191772-2.1889038-1.3856812h2.852478   c1.7949219,0,3.25-1.4550781,3.25-3.25v-0.8475342c0-0.3842163-0.3115234-0.6957397-0.6957397-0.6957397h-2.9928589   l2.286377-7.9389038c0.1065063-0.369812-0.1710815-0.7385864-0.5559082-0.7385864H20.163269   c-0.3848267,0-0.6624146,0.3687744-0.5559082,0.7385864l2.286438,7.9389038h-2.9929199   c-0.3842163,0-0.6957397,0.3115234-0.6957397,0.6957397v0.8475342c0,1.7949219,1.4550781,3.25,3.25,3.25h2.8519897   c-1.2399292,0.2114868-2.196106,0.9920044-2.3964844,1.9663086c-0.0529785,0.0029297-0.1038208-0.0090942-0.1574097,0.0025635   C14.9319458,21.479126,10.0046997,25.6905518,8.5725708,31.25354c-1.2744141,4.9501953,0.4428711,10.0756836,4.59375,13.7109375   c0.0462036,0.0404663,0.1014404,0.0603027,0.1524048,0.0907593c-0.1860962,0.4283447-0.2822876,0.8753662-0.2822876,1.3369751   c0,1.2600098,0.3800049,2.4199829,2.0199585,3.3400269c0.8500366,0.4699707,1.960022,0.7199707,3.1000366,0.7199707H31.786438   c1.1399536,0,2.2600098-0.25,3.0999756-0.7199707c1.6500244-0.9200439,2.0300293-2.0800171,2.0300293-3.3400269   c0-1.75-1.2900391-3.3099976-4.2300415-4.3099976c-2.9099731-0.9799805-4.5899658-2.9299927-4.5899658-4.960022v-4.3578491   h1.8308105c2.2193604,0,3.3500977-1.1002808,3.3500977-2.4575195s-1.1307373-2.4575195-3.3500977-2.4575195h-2.4885254   c0.7894897-0.5326538,1.2984009-1.3065796,1.2984009-2.1795044c0-1.6021729-1.6798706-2.9006348-3.7539063-2.9050293   c1.2805176-0.0027466,2.3833008-0.6033936,2.8569336-1.4630737c0.0811157,0.0212402,0.159729,0.0499878,0.2475586,0.0499878   c0.1850586-0.0039063,0.402832,0,0.6254883,0.0087891c0.4267578,0.0112305,0.8442383,0.0166016,1.2553711,0.0166016   c6.9628906,0,11.6630859-1.5756836,13.9775391-4.6894531c1.5344238-2.0639648,1.6140747-4.2724609,1.4619141-5.6333008h0.4321289   c0.5522461,0,1-0.4477539,1-1S46.392395,9.0543213,45.8401489,9.0543213z M14.5299683,43.5200806   c-0.0181885-0.0186157-0.0263672-0.0430298-0.0462646-0.0604858c-3.5708008-3.1269531-5.0566406-7.5039063-3.9746094-11.7075195   c1.2402344-4.8164063,5.6030273-8.4838867,11.671875-9.8105469c0.1165161-0.0255127,0.2185669-0.078186,0.3140259-0.1383667   c0.5621948,0.5791626,1.4528809,0.9587402,2.4685059,0.9615479c-2.0742798,0.0040283-3.7544556,1.3027344-3.7544556,2.9050903   c0,0.8729248,0.5089111,1.6468506,1.2984009,2.1795044h-2.4885864c-2.2193604,0-3.3500977,1.1002808-3.3500977,2.4575195   s1.1307373,2.4575195,3.3500977,2.4575195h1.8275757v4.3578491c0,2.0300293-1.6799927,3.9800415-4.5800171,4.960022   C16.0974731,42.4797974,15.1998291,42.968689,14.5299683,43.5200806z M24.8364258,47.6221924h-6.6699829   c-0.5599976,0-1-0.4499512-1-1c0-0.5499878,0.4400024-1,1-1h6.6699829c0.5499878,0,1,0.4500122,1,1   C25.8364258,47.1722412,25.3864136,47.6221924,24.8364258,47.6221924z M25.8864136,39.9321899   c0.4299927,0.960022,1.0900269,1.8300171,1.9400024,2.6000366c0.4099731,0.3599854,0.4400024,1,0.0700073,1.4099731   c-0.1900024,0.2200317-0.4700317,0.3300171-0.7399902,0.3300171c-0.2399902,0-0.4800415-0.0900269-0.6700439-0.2600098   c-1.0599976-0.9500122-1.8699951-2.039978-2.4199829-3.25c-0.2299805-0.5-0.0100098-1.0899658,0.4899902-1.3200073   C25.0563965,39.2122192,25.6564331,39.4321899,25.8864136,39.9321899z"/></g></svg>